<svg xmlns="http://www.w3.org/2000/svg" version="1.1" xmlns:xlink="http://www.w3.org/1999/xlink" xmlns:svgjs="http://svgjs.dev/svgjs" width="2000" height="606" viewBox="0 0 2000 606"><g transform="matrix(1,0,0,1,-1.2121212121212466,-0.18817899599378052)"><svg viewBox="0 0 396 120" data-background-color="#dedede" preserveAspectRatio="xMidYMid meet" height="606" width="2000" xmlns="http://www.w3.org/2000/svg" xmlns:xlink="http://www.w3.org/1999/xlink"><g id="tight-bounds" transform="matrix(1,0,0,1,0.2400000000000091,0.03726316752351977)"><svg viewBox="0 0 395.52 119.92547366495297" height="119.92547366495297" width="395.52"><g><svg viewBox="0 0 693.7349174442797 210.34710905244313" height="119.92547366495297" width="395.52"><g transform="matrix(1,0,0,1,298.2149174442799,12.123214390167163)"><svg viewBox="0 0 395.5199999999999 186.1006802721088" height="186.1006802721088" width="395.5199999999999"><g id="textblocktransform"><svg viewBox="0 0 395.5199999999999 186.1006802721088" height="186.1006802721088" width="395.5199999999999" id="textblock"><g><svg viewBox="0 0 395.5199999999999 186.1006802721088" height="186.1006802721088" width="395.5199999999999"><g transform="matrix(1,0,0,1,0,0)"><svg width="395.5199999999999" viewBox="2.05 -40.95 88.19 41.50000000000001" height="186.1006802721088" data-palette-color="#001f3f"><path d="M13.25 0.55L13.25 0.55Q9.6 0.55 7.15-0.88 4.7-2.3 3.45-5.05 2.2-7.8 2.05-11.8L2.05-11.8 8.4-13.05Q8.5-10.7 8.97-8.9 9.45-7.1 10.43-6.13 11.4-5.15 13-5.15L13-5.15Q14.8-5.15 15.55-6.23 16.3-7.3 16.3-8.95L16.3-8.95Q16.3-11.6 15.1-13.3 13.9-15 11.9-16.7L11.9-16.7 6.8-21.2Q4.65-23.05 3.38-25.33 2.1-27.6 2.1-30.95L2.1-30.95Q2.1-35.75 4.9-38.35 7.7-40.95 12.55-40.95L12.55-40.95Q15.4-40.95 17.3-40.08 19.2-39.2 20.33-37.65 21.45-36.1 22-34.13 22.55-32.15 22.7-29.95L22.7-29.95 16.4-28.85Q16.3-30.75 15.98-32.25 15.65-33.75 14.83-34.6 14-35.45 12.4-35.45L12.4-35.45Q10.75-35.45 9.88-34.38 9-33.3 9-31.7L9-31.7Q9-29.65 9.85-28.33 10.7-27 12.3-25.6L12.3-25.6 17.35-21.15Q19.85-19.05 21.63-16.23 23.4-13.4 23.4-9.4L23.4-9.4Q23.4-6.5 22.13-4.25 20.85-2 18.57-0.73 16.3 0.55 13.25 0.55ZM34.85 0L27.55 0 27.55-40.5 34.85-40.5 34.85 0ZM46 0L39.05 0 47.15-40.5 55.05-40.5 63.15 0 56.3 0 54.7-9.35 47.65-9.35 46 0ZM51.15-31.05L48.4-14.05 53.9-14.05 51.15-31.05ZM74.39 0L66.99 0 66.99-40.5 74.39-40.5 74.39-22.7 82.39-40.5 89.44-40.5 81.69-22.4 90.24 0 82.89 0 76.09-18.45 74.39-15.35 74.39 0Z" opacity="1" transform="matrix(1,0,0,1,0,0)" fill="#001f3f" class="wordmark-text-0" data-fill-palette-color="primary" id="text-0"></path></svg></g></svg></g></svg></g></svg></g><g><svg viewBox="0 0 210.34710905244313 210.34710905244313" height="210.34710905244313" width="210.34710905244313"><g><svg></svg></g><g id="icon-0"><svg viewBox="0 0 210.34710905244313 210.34710905244313" height="210.34710905244313" width="210.34710905244313"><g><path d="M0 105.174c0-58.086 47.088-105.174 105.174-105.174 58.086 0 105.174 47.088 105.173 105.174 0 58.086-47.088 105.174-105.173 105.173-58.086 0-105.174-47.088-105.174-105.173zM105.174 193.564c48.817 0 88.391-39.574 88.39-88.39 0-48.817-39.574-88.391-88.39-88.391-48.817 0-88.391 39.574-88.391 88.391 0 48.817 39.574 88.391 88.391 88.39z" data-fill-palette-color="accent" fill="#001f3f" stroke="transparent"></path></g><g transform="matrix(1,0,0,1,59.89734888135632,59.842201249632986)"><svg viewBox="0 0 90.55241128973049 90.66270655317716" height="90.66270655317716" width="90.55241128973049"><g><svg xmlns="http://www.w3.org/2000/svg" xmlns:xlink="http://www.w3.org/1999/xlink" version="1.1" x="0" y="0" viewBox="9 8.9 82.10000000000001 82.2" enable-background="new 0 0 100 100" xml:space="preserve" height="90.66270655317716" width="90.55241128973049" class="icon-cg-0" data-fill-palette-color="accent" id="cg-0"><path d="M19.2 10c0.5 0 0.8 0.4 0.8 0.8v8.3c0 0.5-0.4 0.8-0.8 0.8h-8.3c-0.5 0-0.8-0.4-0.8-0.8v-8.3c0-0.5 0.4-0.8 0.8-0.8H19.2M19.2 9h-8.3C9.8 9 9 9.8 9 10.8v8.3c0 1 0.8 1.8 1.8 1.8h8.3c1 0 1.8-0.8 1.8-1.8v-8.3C21 9.8 20.2 9 19.2 9L19.2 9z" fill="#001f3f" data-fill-palette-color="accent"></path><path d="M19.2 38c0.5 0 0.8 0.4 0.8 0.8v8.3c0 0.5-0.4 0.8-0.8 0.8h-8.3c-0.5 0-0.8-0.4-0.8-0.8v-8.3c0-0.5 0.4-0.8 0.8-0.8H19.2M19.2 37h-8.3c-1 0-1.8 0.8-1.8 1.8v8.3c0 1 0.8 1.8 1.8 1.8h8.3c1 0 1.8-0.8 1.8-1.8v-8.3C21 37.8 20.2 37 19.2 37L19.2 37z" fill="#001f3f" data-fill-palette-color="accent"></path><path d="M75.2 10c0.5 0 0.8 0.4 0.8 0.8v8.3c0 0.5-0.4 0.8-0.8 0.8h-8.3c-0.5 0-0.8-0.4-0.8-0.8v-8.3c0-0.5 0.4-0.8 0.8-0.8H75.2M75.2 9h-8.3c-1 0-1.8 0.8-1.8 1.8v8.3c0 1 0.8 1.8 1.8 1.8h8.3c1 0 1.8-0.8 1.8-1.8v-8.3C77 9.8 76.2 9 75.2 9L75.2 9z" fill="#001f3f" data-fill-palette-color="accent"></path><path d="M66.8 35c-1 0-1.8-0.8-1.8-1.8v-8.3c0-1 0.8-1.8 1.8-1.8h8.3c1 0 1.8 0.8 1.8 1.8v8.3c0 1-0.8 1.8-1.8 1.8H66.8z" fill="#001f3f" data-fill-palette-color="accent"></path><path d="M89.2 52c0.5 0 0.8 0.4 0.8 0.8v8.3c0 0.5-0.4 0.8-0.8 0.8h-8.3c-0.5 0-0.8-0.4-0.8-0.8v-8.3c0-0.5 0.4-0.8 0.8-0.8H89.2M89.2 51h-8.3c-1 0-1.8 0.8-1.8 1.8v8.3c0 1 0.8 1.8 1.8 1.8h8.3c1 0 1.8-0.8 1.8-1.8v-8.3C91 51.8 90.2 51 89.2 51L89.2 51z" fill="#001f3f" data-fill-palette-color="accent"></path><path d="M47.2 52c0.5 0 0.8 0.4 0.8 0.8v8.3c0 0.5-0.4 0.8-0.8 0.8h-8.3c-0.5 0-0.8-0.4-0.8-0.8v-8.3c0-0.5 0.4-0.8 0.8-0.8H47.2M47.2 51h-8.3c-1 0-1.8 0.8-1.8 1.8v8.3c0 1 0.8 1.8 1.8 1.8h8.3c1 0 1.8-0.8 1.8-1.8v-8.3C49 51.8 48.2 51 47.2 51L47.2 51z" fill="#001f3f" data-fill-palette-color="accent"></path><path d="M52.8 77c-1 0-1.8-0.8-1.8-1.8v-8.3c0-1 0.8-1.8 1.8-1.8h8.3c1 0 1.8 0.8 1.8 1.8v8.3c0 1-0.8 1.8-1.8 1.8H52.8z" fill="#001f3f" data-fill-palette-color="accent"></path><path d="M61.2 80c0.5 0 0.8 0.4 0.8 0.8v8.3c0 0.5-0.4 0.8-0.8 0.8h-8.3c-0.5 0-0.8-0.4-0.8-0.8v-8.3c0-0.5 0.4-0.8 0.8-0.8H61.2M61.2 79h-8.3c-1 0-1.8 0.8-1.8 1.8v8.3c0 1 0.8 1.8 1.8 1.8h8.3c1 0 1.8-0.8 1.8-1.8v-8.3C63 79.8 62.2 79 61.2 79L61.2 79z" fill="#001f3f" data-fill-palette-color="accent"></path><path d="M10.8 63c-1 0-1.8-0.8-1.8-1.8v-8.3c0-1 0.8-1.8 1.8-1.8h8.3c1 0 1.8 0.8 1.8 1.8v8.3c0 1-0.8 1.8-1.8 1.8H10.8z" fill="#001f3f" data-fill-palette-color="accent"></path><path d="M25.3 91c-1 0-1.8-0.8-1.8-1.8v-8.3c0-1 0.8-1.8 1.8-1.8h8.3c1 0 1.8 0.8 1.8 1.8v8.3c0 1-0.8 1.8-1.8 1.8H25.3z" fill="#001f3f" data-fill-palette-color="accent"></path><path d="M80.8 21c-1 0-1.8-0.8-1.8-1.8v-8.3c0-1 0.8-1.8 1.8-1.8h8.3c1 0 1.8 0.8 1.8 1.8v8.3c0 1-0.8 1.8-1.8 1.8H80.8z" fill="#001f3f" data-fill-palette-color="accent"></path><path d="M52.9 35c-1 0-1.9-0.8-1.9-1.9V10.9c0-1 0.8-1.9 1.9-1.9h8.3c1 0 1.9 0.8 1.9 1.9v22.3c0 1-0.8 1.9-1.9 1.9H52.9z" fill="#001f3f" data-fill-palette-color="accent"></path><path d="M80.9 49c-1 0-1.9-0.8-1.9-1.9V24.9c0-1 0.8-1.9 1.9-1.9h8.3c1 0 1.9 0.8 1.9 1.9v22.3c0 1-0.8 1.9-1.9 1.9H80.9z" fill="#001f3f" data-fill-palette-color="accent"></path><path d="M10.9 91c-1 0-1.9-0.8-1.9-1.9V66.9c0-1 0.8-1.9 1.9-1.9h8.3c1 0 1.9 0.8 1.9 1.9v22.3c0 1-0.8 1.9-1.9 1.9H10.9z" fill="#001f3f" data-fill-palette-color="accent"></path><path d="M38.9 91c-1 0-1.9-0.8-1.9-1.9V66.9c0-1 0.8-1.9 1.9-1.9h8.3c1 0 1.9 0.8 1.9 1.9v22.3c0 1-0.8 1.9-1.9 1.9H38.9z" fill="#001f3f" data-fill-palette-color="accent"></path><path d="M38.9 49c-1 0-1.9-0.8-1.9-1.9V24.9c0-1 0.8-1.9 1.9-1.9h8.3c1 0 1.9 0.8 1.9 1.9v22.3c0 1-0.8 1.9-1.9 1.9H38.9z" fill="#001f3f" data-fill-palette-color="accent"></path><path d="M53.7 63c-1.5 0-2.7-1.2-2.7-2.7V39.7c0-1.5 1.2-2.7 2.7-2.7h20.5c1.5 0 2.7 1.2 2.7 2.7v20.5c0 1.5-1.2 2.7-2.7 2.7H53.7z" fill="#001f3f" data-fill-palette-color="accent"></path><path d="M67.7 91c-1.5 0-2.7-1.2-2.7-2.7V67.7c0-1.5 1.2-2.7 2.7-2.7h20.5c1.5 0 2.7 1.2 2.7 2.7v20.5c0 1.5-1.2 2.7-2.7 2.7H67.7z" fill="#001f3f" data-fill-palette-color="accent"></path><path d="M25.8 77c-1.3 0-2.3-1-2.3-2.3V39.3c0-1.3 1-2.3 2.3-2.3h7.4c1.3 0 2.3 1 2.3 2.3v35.4c0 1.3-1 2.3-2.3 2.3H25.8z" fill="#001f3f" data-fill-palette-color="accent"></path><path d="M24.9 21c-1 0-1.9-0.8-1.9-1.9v-8.3c0-1 0.8-1.9 1.9-1.9h22.3c1 0 1.9 0.8 1.9 1.9v8.3c0 1-0.8 1.9-1.9 1.9H24.9z" fill="#001f3f" data-fill-palette-color="accent"></path><path d="M11.4 35c-1 0-1.9-0.8-1.9-1.9v-8.3c0-1 0.8-1.9 1.9-1.9h22.3c1 0 1.9 0.8 1.9 1.9v8.3c0 1-0.8 1.9-1.9 1.9H11.4z" fill="#001f3f" data-fill-palette-color="accent"></path></svg></g></svg></g></svg></g></svg></g></svg></g><defs></defs></svg><rect width="395.52" height="119.92547366495297" fill="none" stroke="none" visibility="hidden"></rect></g></svg></g></svg>